<mxfile host="app.diagrams.net" agent="Mozilla/5.0 (Windows NT 10.0; Win64; x64) AppleWebKit/537.36 (KHTML, like Gecko) Chrome/131.0.0.0 Safari/537.36 Edg/131.0.0.0" version="24.8.6">
  <diagram name="Страница — 3" id="woJnXkEoawiCxBiswvA5">
    <mxGraphModel dx="1128" dy="1067" grid="1" gridSize="10" guides="1" tooltips="1" connect="1" arrows="1" fold="1" page="1" pageScale="1" pageWidth="827" pageHeight="1169" math="0" shadow="0">
      <root>
        <mxCell id="0" />
        <mxCell id="1" parent="0" />
        <mxCell id="Iq_9T3DooCO9nHNaWhRJ-1" value="Сервис по продаже фермерской продукции" style="shape=umlFrame;whiteSpace=wrap;html=1;pointerEvents=0;width=170;height=30;" parent="1" vertex="1">
          <mxGeometry x="506.88" y="430" width="650" height="1200" as="geometry" />
        </mxCell>
        <mxCell id="Iq_9T3DooCO9nHNaWhRJ-2" value="Изучить фермерскую продукцию" style="ellipse;whiteSpace=wrap;html=1;" parent="1" vertex="1">
          <mxGeometry x="526.2600000000001" y="549" width="125" height="70" as="geometry" />
        </mxCell>
        <mxCell id="Iq_9T3DooCO9nHNaWhRJ-3" value="Сделать заказ" style="ellipse;whiteSpace=wrap;html=1;" parent="1" vertex="1">
          <mxGeometry x="531.8800000000001" y="880" width="125" height="70" as="geometry" />
        </mxCell>
        <mxCell id="Iq_9T3DooCO9nHNaWhRJ-6" value="Оплатить" style="ellipse;whiteSpace=wrap;html=1;fontStyle=2" parent="1" vertex="1">
          <mxGeometry x="740.0000000000001" y="880" width="140" height="70" as="geometry" />
        </mxCell>
        <mxCell id="Iq_9T3DooCO9nHNaWhRJ-7" value="&quot;include&quot;" style="html=1;verticalAlign=bottom;endArrow=open;dashed=1;endSize=8;curved=0;rounded=0;entryX=0;entryY=0.5;entryDx=0;entryDy=0;exitX=1;exitY=0.5;exitDx=0;exitDy=0;" parent="1" source="Iq_9T3DooCO9nHNaWhRJ-3" target="Iq_9T3DooCO9nHNaWhRJ-6" edge="1">
          <mxGeometry relative="1" as="geometry">
            <mxPoint x="796.8800000000001" y="990" as="sourcePoint" />
            <mxPoint x="716.8800000000001" y="990" as="targetPoint" />
          </mxGeometry>
        </mxCell>
        <mxCell id="Iq_9T3DooCO9nHNaWhRJ-8" value="Искать продукт" style="ellipse;whiteSpace=wrap;html=1;" parent="1" vertex="1">
          <mxGeometry x="740.0000000000001" y="479" width="140" height="70" as="geometry" />
        </mxCell>
        <mxCell id="Iq_9T3DooCO9nHNaWhRJ-9" value="&quot;extend&quot;" style="html=1;verticalAlign=bottom;endArrow=open;dashed=1;endSize=8;curved=0;rounded=0;entryX=1;entryY=0;entryDx=0;entryDy=0;exitX=0;exitY=0.5;exitDx=0;exitDy=0;" parent="1" source="Iq_9T3DooCO9nHNaWhRJ-8" target="Iq_9T3DooCO9nHNaWhRJ-2" edge="1">
          <mxGeometry relative="1" as="geometry">
            <mxPoint x="779.3800000000001" y="564.5" as="sourcePoint" />
            <mxPoint x="704.3800000000001" y="564.5" as="targetPoint" />
          </mxGeometry>
        </mxCell>
        <mxCell id="Iq_9T3DooCO9nHNaWhRJ-10" value="Выбрать&lt;div&gt;&amp;nbsp;категорию/сортировку&lt;/div&gt;" style="ellipse;whiteSpace=wrap;html=1;" parent="1" vertex="1">
          <mxGeometry x="740.0000000000001" y="610" width="140" height="70" as="geometry" />
        </mxCell>
        <mxCell id="Iq_9T3DooCO9nHNaWhRJ-11" value="&quot;extend&quot;" style="html=1;verticalAlign=bottom;endArrow=open;dashed=1;endSize=8;curved=0;rounded=0;entryX=1;entryY=1;entryDx=0;entryDy=0;exitX=0;exitY=0.5;exitDx=0;exitDy=0;" parent="1" source="Iq_9T3DooCO9nHNaWhRJ-10" target="Iq_9T3DooCO9nHNaWhRJ-2" edge="1">
          <mxGeometry relative="1" as="geometry">
            <mxPoint x="764.3800000000001" y="740" as="sourcePoint" />
            <mxPoint x="689.3800000000001" y="740" as="targetPoint" />
          </mxGeometry>
        </mxCell>
        <mxCell id="Iq_9T3DooCO9nHNaWhRJ-12" value="CRUD корзина" style="ellipse;whiteSpace=wrap;html=1;" parent="1" vertex="1">
          <mxGeometry x="526.8800000000001" y="710" width="140" height="70" as="geometry" />
        </mxCell>
        <mxCell id="Iq_9T3DooCO9nHNaWhRJ-22" value="Оставить отзыв" style="ellipse;whiteSpace=wrap;html=1;" parent="1" vertex="1">
          <mxGeometry x="531.88" y="1030" width="130" height="70" as="geometry" />
        </mxCell>
        <mxCell id="Iq_9T3DooCO9nHNaWhRJ-23" value="Оплатить банковской картой" style="ellipse;whiteSpace=wrap;html=1;" parent="1" vertex="1">
          <mxGeometry x="983.0000000000001" y="820" width="140" height="70" as="geometry" />
        </mxCell>
        <mxCell id="Iq_9T3DooCO9nHNaWhRJ-24" value="Оплатить наличными" style="ellipse;whiteSpace=wrap;html=1;" parent="1" vertex="1">
          <mxGeometry x="984.0000000000001" y="940" width="139" height="70" as="geometry" />
        </mxCell>
        <mxCell id="Iq_9T3DooCO9nHNaWhRJ-25" value="" style="html=1;verticalAlign=bottom;endArrow=block;curved=0;rounded=0;endFill=0;endSize=12;entryX=1;entryY=0.5;entryDx=0;entryDy=0;" parent="1" edge="1">
          <mxGeometry width="80" relative="1" as="geometry">
            <mxPoint x="929.0000000000001" y="915" as="sourcePoint" />
            <mxPoint x="879.0000000000001" y="915" as="targetPoint" />
          </mxGeometry>
        </mxCell>
        <mxCell id="Iq_9T3DooCO9nHNaWhRJ-26" style="edgeStyle=orthogonalEdgeStyle;rounded=0;orthogonalLoop=1;jettySize=auto;html=1;entryX=0;entryY=0.5;entryDx=0;entryDy=0;endArrow=none;endFill=0;exitX=0;exitY=0.5;exitDx=0;exitDy=0;" parent="1" source="Iq_9T3DooCO9nHNaWhRJ-24" target="Iq_9T3DooCO9nHNaWhRJ-23" edge="1">
          <mxGeometry relative="1" as="geometry">
            <mxPoint x="1388.96" y="805" as="sourcePoint" />
            <mxPoint x="1368.96" y="710" as="targetPoint" />
            <Array as="points">
              <mxPoint x="928.9600000000002" y="975" />
              <mxPoint x="928.9600000000002" y="855" />
            </Array>
          </mxGeometry>
        </mxCell>
        <mxCell id="Iq_9T3DooCO9nHNaWhRJ-27" value="Клиент" style="shape=umlActor;verticalLabelPosition=bottom;verticalAlign=top;html=1;outlineConnect=0;rotation=0;" parent="1" vertex="1">
          <mxGeometry x="416.8800000000001" y="885" width="30" height="60" as="geometry" />
        </mxCell>
        <mxCell id="Iq_9T3DooCO9nHNaWhRJ-28" value="" style="endArrow=none;html=1;rounded=0;entryX=0;entryY=1;entryDx=0;entryDy=0;" parent="1" source="Iq_9T3DooCO9nHNaWhRJ-27" target="Iq_9T3DooCO9nHNaWhRJ-2" edge="1">
          <mxGeometry width="50" height="50" relative="1" as="geometry">
            <mxPoint x="436.8800000000001" y="670" as="sourcePoint" />
            <mxPoint x="1016.8800000000001" y="870" as="targetPoint" />
          </mxGeometry>
        </mxCell>
        <mxCell id="Iq_9T3DooCO9nHNaWhRJ-29" value="" style="endArrow=none;html=1;rounded=0;entryX=0;entryY=0.5;entryDx=0;entryDy=0;" parent="1" source="Iq_9T3DooCO9nHNaWhRJ-27" target="Iq_9T3DooCO9nHNaWhRJ-3" edge="1">
          <mxGeometry width="50" height="50" relative="1" as="geometry">
            <mxPoint x="416.8800000000001" y="810" as="sourcePoint" />
            <mxPoint x="574.8800000000001" y="680" as="targetPoint" />
          </mxGeometry>
        </mxCell>
        <mxCell id="Iq_9T3DooCO9nHNaWhRJ-30" value="CRUD&lt;br&gt;продукты" style="ellipse;whiteSpace=wrap;html=1;" parent="1" vertex="1">
          <mxGeometry x="528.1300000000001" y="1140" width="127.5" height="68" as="geometry" />
        </mxCell>
        <mxCell id="Iq_9T3DooCO9nHNaWhRJ-31" value="CRUD&lt;br&gt;категории" style="ellipse;whiteSpace=wrap;html=1;" parent="1" vertex="1">
          <mxGeometry x="526.8800000000001" y="1230" width="130" height="70" as="geometry" />
        </mxCell>
        <mxCell id="Iq_9T3DooCO9nHNaWhRJ-32" value="CRUD&lt;br&gt;сотрудники" style="ellipse;whiteSpace=wrap;html=1;" parent="1" vertex="1">
          <mxGeometry x="524.3800000000001" y="1320" width="130" height="70" as="geometry" />
        </mxCell>
        <mxCell id="Iq_9T3DooCO9nHNaWhRJ-33" value="Курьер" style="shape=umlActor;verticalLabelPosition=bottom;verticalAlign=top;html=1;outlineConnect=0;" parent="1" vertex="1">
          <mxGeometry x="413" y="1523.5" width="30" height="60" as="geometry" />
        </mxCell>
        <mxCell id="Iq_9T3DooCO9nHNaWhRJ-34" value="Просмотреть&lt;br&gt;заказ" style="ellipse;whiteSpace=wrap;html=1;" parent="1" vertex="1">
          <mxGeometry x="524.8800000000001" y="1520" width="133.75" height="67" as="geometry" />
        </mxCell>
        <mxCell id="Iq_9T3DooCO9nHNaWhRJ-35" value="" style="endArrow=none;html=1;rounded=0;exitX=0;exitY=0.5;exitDx=0;exitDy=0;" parent="1" source="Iq_9T3DooCO9nHNaWhRJ-34" target="Iq_9T3DooCO9nHNaWhRJ-33" edge="1">
          <mxGeometry width="50" height="50" relative="1" as="geometry">
            <mxPoint x="743" y="1493.5" as="sourcePoint" />
            <mxPoint x="460.5" y="1486.5" as="targetPoint" />
          </mxGeometry>
        </mxCell>
        <mxCell id="Iq_9T3DooCO9nHNaWhRJ-36" value="CRUD&lt;br&gt;заказы" style="ellipse;whiteSpace=wrap;html=1;" parent="1" vertex="1">
          <mxGeometry x="525.6300000000001" y="1410" width="132.5" height="70" as="geometry" />
        </mxCell>
        <mxCell id="Iq_9T3DooCO9nHNaWhRJ-39" value="" style="endArrow=none;html=1;rounded=0;entryX=0;entryY=0.5;entryDx=0;entryDy=0;" parent="1" source="Iq_9T3DooCO9nHNaWhRJ-27" target="Iq_9T3DooCO9nHNaWhRJ-22" edge="1">
          <mxGeometry width="50" height="50" relative="1" as="geometry">
            <mxPoint x="391.8800000000001" y="880" as="sourcePoint" />
            <mxPoint x="506.8800000000001" y="1026" as="targetPoint" />
          </mxGeometry>
        </mxCell>
        <mxCell id="Iq_9T3DooCO9nHNaWhRJ-40" value="" style="endArrow=none;html=1;rounded=0;exitX=0;exitY=0.5;exitDx=0;exitDy=0;" parent="1" source="Iq_9T3DooCO9nHNaWhRJ-30" edge="1">
          <mxGeometry width="50" height="50" relative="1" as="geometry">
            <mxPoint x="416.8800000000001" y="1098" as="sourcePoint" />
            <mxPoint x="446.8800000000001" y="1260" as="targetPoint" />
          </mxGeometry>
        </mxCell>
        <mxCell id="Iq_9T3DooCO9nHNaWhRJ-41" value="Менеджер" style="shape=umlActor;verticalLabelPosition=bottom;verticalAlign=top;html=1;outlineConnect=0;rotation=0;" parent="1" vertex="1">
          <mxGeometry x="416.8800000000001" y="1270" width="30" height="60" as="geometry" />
        </mxCell>
        <mxCell id="Iq_9T3DooCO9nHNaWhRJ-42" value="" style="endArrow=none;html=1;rounded=0;exitX=0;exitY=0.5;exitDx=0;exitDy=0;" parent="1" source="Iq_9T3DooCO9nHNaWhRJ-31" target="Iq_9T3DooCO9nHNaWhRJ-41" edge="1">
          <mxGeometry width="50" height="50" relative="1" as="geometry">
            <mxPoint x="539.8800000000001" y="1294" as="sourcePoint" />
            <mxPoint x="456.8800000000001" y="1400" as="targetPoint" />
          </mxGeometry>
        </mxCell>
        <mxCell id="Iq_9T3DooCO9nHNaWhRJ-43" value="" style="endArrow=none;html=1;rounded=0;exitX=0;exitY=0.5;exitDx=0;exitDy=0;" parent="1" source="Iq_9T3DooCO9nHNaWhRJ-32" target="Iq_9T3DooCO9nHNaWhRJ-41" edge="1">
          <mxGeometry width="50" height="50" relative="1" as="geometry">
            <mxPoint x="506.8800000000001" y="1420" as="sourcePoint" />
            <mxPoint x="426.8800000000001" y="1449" as="targetPoint" />
          </mxGeometry>
        </mxCell>
        <mxCell id="Iq_9T3DooCO9nHNaWhRJ-44" value="" style="endArrow=none;html=1;rounded=0;exitX=0;exitY=0.5;exitDx=0;exitDy=0;" parent="1" source="Iq_9T3DooCO9nHNaWhRJ-36" target="Iq_9T3DooCO9nHNaWhRJ-41" edge="1">
          <mxGeometry width="50" height="50" relative="1" as="geometry">
            <mxPoint x="494.8800000000001" y="1426" as="sourcePoint" />
            <mxPoint x="416.8800000000001" y="1380" as="targetPoint" />
          </mxGeometry>
        </mxCell>
        <mxCell id="Iq_9T3DooCO9nHNaWhRJ-45" value="" style="endArrow=none;html=1;rounded=0;entryX=0;entryY=0.5;entryDx=0;entryDy=0;" parent="1" target="Iq_9T3DooCO9nHNaWhRJ-12" edge="1">
          <mxGeometry width="50" height="50" relative="1" as="geometry">
            <mxPoint x="450" y="890" as="sourcePoint" />
            <mxPoint x="880" y="630" as="targetPoint" />
          </mxGeometry>
        </mxCell>
      </root>
    </mxGraphModel>
  </diagram>
</mxfile>
